<?xml version="1.0" encoding="utf-8"?>
<!-- Generator: Adobe Illustrator 24.0.0, SVG Export Plug-In . SVG Version: 6.00 Build 0)  -->
<svg version="1.1" id="Layer_1" xmlns="http://www.w3.org/2000/svg" xmlns:xlink="http://www.w3.org/1999/xlink" x="0px" y="0px"
	 viewBox="0 0 1000 1000" style="enable-background:new 0 0 1000 1000;" xml:space="preserve">
<style type="text/css">
	.st0{fill:#7CC576;}
	.st1{fill:#FFFFFF;}
</style>
<circle class="st0" cx="500" cy="500" r="494.28"/>
<circle class="st1" cx="500" cy="500" r="413.38"/>
<circle class="st0" cx="500" cy="500" r="338.96"/>
<g>
	<path d="M652.46,485.44c17.67,23.16,26.91,51.07,26.69,83.72c-0.39,57.61-30.17,120.78-79.78,169.41
		c-55.94,55.31-131.64,85.53-212.36,84.98l-261.05-1.77l341.02-659.26c0,0,27.79-1.45,37.63-1.45c9.84,0,139.55,2.64,139.55,2.64
		c48.23,0.33,85.88,13.06,111.94,36.28c23.97,21.29,36.35,51.14,36.11,86.66C791.75,352.92,740.85,438.03,652.46,485.44z
		 M490.73,523.71l-54.52-0.37L332.09,727.16l50.32,0.34c92.26,0.63,144.24-89.28,144.67-151.69c0.11-16.32-3.99-29.79-10.22-39.44
		C510.62,528.65,502.27,523.79,490.73,523.71z M490.33,427.69c92.26,0.62,149.41-77.72,149.79-134.37
		c0.08-12.48-2.99-23.06-8.19-29.82c-6.25-6.76-13.56-9.69-25.1-9.77l-30.41-0.21l-90.3,174.14L490.33,427.69z"/>
</g>
</svg>
